<svg width="24" height="24" viewBox="0 0 24 24" fill="none" xmlns="http://www.w3.org/2000/svg">
<rect width="24" height="24" rx="12" fill="#111113"/>
<path d="M22 10V13.974H21.0674V10H22ZM17.4446 10.052H20.5755V13.9324H18.0595C17.8579 13.9324 17.7042 13.8786 17.5983 13.7711C17.4958 13.6671 17.4446 13.5128 17.4446 13.3082V10.052ZM18.3772 13.329C18.3772 13.4677 18.4455 13.5371 18.5822 13.5371H19.6429V10.4473H18.3772V13.329Z" fill="white"/>
<path d="M15.8048 10V13.974H14.9645V12.1482H14.1395V11.7269H14.9645V10H15.8048ZM12.3972 10.052H14.6929V10.4473H13.3298V13.5423H14.6929V13.9376H12.8584C12.7081 13.9376 12.5936 13.8977 12.5151 13.8179C12.4365 13.7382 12.3972 13.622 12.3972 13.4694V10.052ZM16.0662 10H16.9527V13.974H16.0662V10Z" fill="white"/>
<path d="M11.3825 10V11.6229H11.9257V12.0442H11.3825V13.974H10.4499V10H11.3825ZM7.15503 10.052H9.69666C9.80256 10.052 9.88967 10.0867 9.958 10.156C10.0263 10.2254 10.0605 10.3138 10.0605 10.4213V13.9376H9.07662V12.0962H7.20115V11.7113H9.07662V10.4213H7.15503V10.052Z" fill="white"/>
<path d="M5.40763 11.6852V10.4316H2.15885V10.0311H5.88931C6.02596 10.0311 6.13869 10.0762 6.22751 10.1664C6.31633 10.2565 6.36074 10.371 6.36074 10.5097V11.6852H5.40763ZM2 11.9245H3.45529V11.1859H4.4084V11.9245H6.68357V12.325H2V11.9245ZM2.09736 13.2717C2.09736 13.0324 2.16739 12.8521 2.30746 12.7307C2.44752 12.6059 2.65078 12.5435 2.91724 12.5435H5.69459C5.96105 12.5435 6.16431 12.6059 6.30437 12.7307C6.44444 12.8521 6.51447 13.0324 6.51447 13.2717C6.51447 13.511 6.44444 13.6913 6.30437 13.8127C6.16431 13.9375 5.96105 13.9999 5.69459 13.9999H2.91724C2.65078 13.9999 2.44752 13.9375 2.30746 13.8127C2.16739 13.6913 2.09736 13.511 2.09736 13.2717ZM3.07097 13.3029C3.07097 13.511 3.17345 13.615 3.37842 13.615H5.23853C5.4435 13.615 5.54598 13.511 5.54598 13.3029V13.2405C5.54598 13.0324 5.4435 12.9284 5.23853 12.9284H3.37842C3.17345 12.9284 3.07097 13.0324 3.07097 13.2405V13.3029Z" fill="white"/>
</svg>
