<svg width="48" height="24" viewBox="0 0 24 8" fill="none" xmlns="http://www.w3.org/2000/svg">
<g clip-path="url(#clip0_292_885)">
<path d="M24 1.5V6.46751H22.8809V1.5H24ZM18.5334 1.56502H22.2906V6.4155H19.2713C19.0295 6.4155 18.845 6.34831 18.7179 6.21394C18.5949 6.0839 18.5334 5.89101 18.5334 5.63526V1.56502ZM19.6526 5.66127C19.6526 5.83466 19.7346 5.92135 19.8985 5.92135H21.1714V2.05917H19.6526V5.66127Z" fill="#111113"/>
<path d="M16.5658 1.5V6.46751H15.5574V4.18532H14.5674V3.65866H15.5574V1.5H16.5658ZM12.4767 1.56502H15.2315V2.05917H13.5958V5.92785H15.2315V6.422H13.0301C12.8497 6.422 12.7124 6.37215 12.6181 6.27246C12.5238 6.17276 12.4767 6.02755 12.4767 5.83682V1.56502ZM16.8794 1.5H17.9432V6.46751H16.8794V1.5Z" fill="#111113"/>
<path d="M11.259 1.5V3.52862H11.9109V4.05528H11.259V6.46751H10.1399V1.5H11.259ZM6.18604 1.56502H9.23599C9.36307 1.56502 9.46761 1.60837 9.5496 1.69506C9.63158 1.78175 9.67258 1.89229 9.67258 2.02666V6.422H8.49195V4.1203H6.24138V3.63915H8.49195V2.02666H6.18604V1.56502Z" fill="#111113"/>
<path d="M4.08915 3.60657V2.03959H0.190622V1.53894H4.66717C4.83115 1.53894 4.96643 1.59529 5.07301 1.70799C5.1796 1.82069 5.23289 1.96374 5.23289 2.13712V3.60657H4.08915ZM0 3.90566H1.74635V2.98238H2.89008V3.90566H5.62028V4.40632H0V3.90566ZM0.116833 5.58968C0.116833 5.29059 0.200871 5.06518 0.368946 4.91347C0.537022 4.75742 0.780936 4.6794 1.10069 4.6794H4.43351C4.75326 4.6794 4.99717 4.75742 5.16525 4.91347C5.33332 5.06518 5.41736 5.29059 5.41736 5.58968C5.41736 5.88877 5.33332 6.11417 5.16525 6.26588C4.99717 6.42193 4.75326 6.49995 4.43351 6.49995H1.10069C0.780936 6.49995 0.537022 6.42193 0.368946 6.26588C0.200871 6.11417 0.116833 5.88877 0.116833 5.58968ZM1.28516 5.62869C1.28516 5.88877 1.40814 6.01881 1.65411 6.01881H3.88623C4.1322 6.01881 4.25518 5.88877 4.25518 5.62869V5.55066C4.25518 5.29058 4.1322 5.16055 3.88623 5.16055H1.65411C1.40814 5.16055 1.28516 5.29058 1.28516 5.55066V5.62869Z" fill="#111113"/>
</g>
<defs>
<clipPath id="clip0_292_885">
<rect width="48" height="24" fill="white"/>
</clipPath>
</defs>
</svg>
