<svg width="48" height="24" viewBox="0 0 48 24" fill="none" xmlns="http://www.w3.org/2000/svg">
<g clip-path="url(#clip0_292_874)">
<path d="M48 6.46094V17.4609H45.7617V6.46094H48ZM37.0669 6.60492H44.5811V17.3458H38.5427C38.059 17.3458 37.69 17.197 37.4358 16.8994C37.1899 16.6115 37.0669 16.1843 37.0669 15.618V6.60492ZM39.3052 15.6756C39.3052 16.0595 39.4691 16.2515 39.7971 16.2515H42.3428V7.69916H39.3052V15.6756Z" fill="#111113"/>
<path d="M33.1317 6.46094V17.4609H31.1148V12.4073H29.1348V11.241H31.1148V6.46094H33.1317ZM24.9534 6.60492H30.463V7.69916H27.1916V16.2659H30.463V17.3602H26.0602C25.6995 17.3602 25.4248 17.2498 25.2362 17.029C25.0477 16.8082 24.9534 16.4867 24.9534 16.0643V6.60492ZM33.7589 6.46094H35.8865V17.4609H33.7589V6.46094Z" fill="#111113"/>
<path d="M22.5181 6.46094V10.9531H23.8217V12.1193H22.5181V17.4609H20.2798V6.46094H22.5181ZM12.3721 6.60492H18.472C18.7262 6.60492 18.9352 6.7009 19.0992 6.89288C19.2632 7.08485 19.3452 7.32961 19.3452 7.62717V17.3602H16.9839V12.2633H12.4828V11.1978H16.9839V7.62717H12.3721V6.60492Z" fill="#111113"/>
<path d="M8.17832 11.1236V7.64915H0.381245V6.53906H9.33435C9.6623 6.53906 9.93286 6.66401 10.146 6.9139C10.3592 7.16379 10.4658 7.48096 10.4658 7.86541V11.1236H8.17832ZM0 11.7868H3.49269V9.73959H5.78016V11.7868H11.2406V12.8969H0V11.7868ZM0.233666 15.5207C0.233666 14.8575 0.401742 14.3578 0.737893 14.0214C1.07404 13.6754 1.56187 13.5024 2.20138 13.5024H8.86702C9.50652 13.5024 9.99435 13.6754 10.3305 14.0214C10.6667 14.3578 10.8347 14.8575 10.8347 15.5207C10.8347 16.1839 10.6667 16.6837 10.3305 17.0201C9.99435 17.3661 9.50652 17.5391 8.86702 17.5391H2.20138C1.56187 17.5391 1.07404 17.3661 0.737893 17.0201C0.401742 16.6837 0.233666 16.1839 0.233666 15.5207ZM2.57033 15.6072C2.57033 16.1839 2.81629 16.4722 3.30822 16.4722H7.77247C8.2644 16.4722 8.51037 16.1839 8.51037 15.6072V15.4342C8.51037 14.8575 8.2644 14.5692 7.77247 14.5692H3.30822C2.81629 14.5692 2.57033 14.8575 2.57033 15.4342V15.6072Z" fill="#111113"/>
</g>
<defs>
<clipPath id="clip0_292_874">
<rect width="48" height="24" fill="white"/>
</clipPath>
</defs>
</svg>
