<svg width="16" height="16" viewBox="0 0 16 16" fill="none" xmlns="http://www.w3.org/2000/svg">
<path fill-rule="evenodd" clip-rule="evenodd" d="M2.3254 1.62038C2.11574 1.44067 1.80009 1.46495 1.62038 1.67461C1.44067 1.88428 1.46495 2.19993 1.67461 2.37964L8.23171 8.00001L1.67461 13.6204C1.46495 13.8001 1.44067 14.1157 1.62038 14.3254C1.80009 14.5351 2.11574 14.5593 2.3254 14.3796L9.3254 8.37964L9.7683 8.00001L9.3254 7.62038L2.3254 1.62038ZM7.3254 1.62038C7.11574 1.44067 6.80009 1.46495 6.62038 1.67461C6.44067 1.88428 6.46495 2.19993 6.67461 2.37964L13.2317 8.00001L6.67461 13.6204C6.46495 13.8001 6.44067 14.1157 6.62038 14.3254C6.80009 14.5351 7.11574 14.5593 7.3254 14.3796L14.3254 8.37964L14.7683 8.00001L14.3254 7.62038L7.3254 1.62038Z" fill="#4EA5FC"/>
</svg>
