<svg width="16" height="16" viewBox="0 0 16 16" fill="none" xmlns="http://www.w3.org/2000/svg">
<path d="M7.57801 4.06844L7.99984 4.73131L8.42167 4.06844C9.02942 3.1134 10.1032 2.5 11.3332 2.5C13.257 2.5 14.8332 4.07614 14.8332 6C14.8332 6.84956 14.4411 7.74594 13.7841 8.64182C13.131 9.53251 12.2492 10.3772 11.3499 11.113C10.4531 11.8468 9.55373 12.4602 8.87723 12.8907C8.53948 13.1056 8.25847 13.2742 8.06266 13.3886C8.04097 13.4013 8.02033 13.4133 8.00078 13.4246C7.98107 13.4131 7.96025 13.4009 7.93837 13.3881C7.7425 13.2728 7.46141 13.103 7.12358 12.8867C6.44693 12.4535 5.54738 11.837 4.65032 11.101C3.75078 10.3629 2.86869 9.51693 2.2153 8.62743C1.55782 7.73236 1.1665 6.84041 1.1665 6C1.1665 4.07614 2.74265 2.5 4.6665 2.5C5.89643 2.5 6.97026 3.1134 7.57801 4.06844Z" stroke="black"/>
</svg>
