<svg width="16" height="16" viewBox="0 0 16 16" fill="none" xmlns="http://www.w3.org/2000/svg">
<path d="M11 6.5C11 8.98528 8.98528 11 6.5 11C4.01472 11 2 8.98528 2 6.5C2 4.01472 4.01472 2 6.5 2C8.98528 2 11 4.01472 11 6.5ZM2.9 6.5C2.9 8.48822 4.51177 10.1 6.5 10.1C8.48822 10.1 10.1 8.48822 10.1 6.5C10.1 4.51177 8.48822 2.9 6.5 2.9C4.51177 2.9 2.9 4.51177 2.9 6.5Z" fill="#111113"/>
<path fill-rule="evenodd" clip-rule="evenodd" d="M13.1465 13.8535L9.14648 9.85353L9.85359 9.14642L13.8536 13.1464L13.1465 13.8535Z" fill="#111113"/>
</svg>
