<svg width="24" height="24" viewBox="0 0 24 24" fill="none" xmlns="http://www.w3.org/2000/svg">
<rect x="2.5" y="4.5" width="19" height="13" rx="2.5" fill="#287C52" stroke="#CAAC71" stroke-linejoin="bevel"/>
<path d="M4.24459 15.2879L4.95888 10.2879C5.06444 9.54889 5.69732 9 6.4438 9H17.5562C18.3027 9 18.9356 9.5489 19.0411 10.2879L19.7554 15.2879C19.8845 16.1915 19.1833 17 18.2705 17H5.72951C4.81669 17 4.1155 16.1915 4.24459 15.2879Z" fill="#393939"/>
<path d="M4 22C4 18.6863 6.68629 16 10 16H14C17.3137 16 20 18.6863 20 22H4Z" fill="#F8B1B1"/>
<path fill-rule="evenodd" clip-rule="evenodd" d="M14 14H10V16C10 16.5304 10.2107 17.0391 10.5858 17.4142C10.9609 17.7893 11.4696 18 12 18C12.5304 18 13.0391 17.7893 13.4142 17.4142C13.7893 17.0391 14 16.5304 14 16V14Z" fill="#F7EAD6"/>
<circle cx="12" cy="9" r="7" fill="#FFF1DD"/>
<path d="M5.00017 8C5.00017 8 4.76584 7.90202 5.00007 7C5.43778 5.31362 6.71707 2 11.8648 2C17.2891 2 18.7569 6.62156 18.8297 6.98465C18.8895 7.28276 19.025 7.84958 19 8C15.8422 8.37243 10.9634 8.6609 10.1905 5.65C9.87008 7.97781 6 9 5.00017 8Z" fill="#393939"/>
<circle cx="9.625" cy="9.625" r="0.625" fill="#111113"/>
<circle cx="14.375" cy="9.625" r="0.625" fill="#111113"/>
<path d="M13.3 11C13.4105 11 13.5014 11.0899 13.4867 11.1994C13.4432 11.5236 13.2945 11.8268 13.0607 12.0607C12.7794 12.342 12.3978 12.5 12 12.5C11.6022 12.5 11.2206 12.342 10.9393 12.0607C10.7055 11.8268 10.5568 11.5236 10.5133 11.1994C10.4986 11.0899 10.5895 11 10.7 11L13.3 11Z" fill="#FFC0C0"/>
<rect x="7.5" y="18" width="9" height="4" fill="#F13939"/>
<rect x="7.5" y="18" width="2" height="4" fill="#AE2121"/>
<circle cx="19" cy="9" r="1" fill="#FFF1DD"/>
<circle cx="5" cy="9" r="1" fill="#FFF1DD"/>
</svg>
