<svg width="16" height="16" viewBox="0 0 16 16" fill="none" xmlns="http://www.w3.org/2000/svg">
<path d="M2 7.99974L1.53181 7.82425L1.46604 7.99972L1.53179 8.17519L2 7.99974ZM14.0002 8.00028L14.4684 8.17577L14.5342 8.00031L14.4684 7.82483L14.0002 8.00028ZM2.46819 8.17524C3.26566 6.04771 5.43029 4.5 8.00001 4.5V3.5C5.02972 3.5 2.48126 5.29128 1.53181 7.82425L2.46819 8.17524ZM8.00001 4.5C10.5699 4.5 12.7347 6.04795 13.532 8.17573L14.4684 7.82483C13.5191 5.29155 10.9705 3.5 8.00001 3.5V4.5ZM13.532 7.82478C12.7346 9.95231 10.5699 11.5 8.00021 11.5V12.5C10.9705 12.5 13.519 10.7087 14.4684 8.17577L13.532 7.82478ZM8.00021 11.5C5.43029 11.5 3.26553 9.95208 2.46821 7.82429L1.53179 8.17519C2.48107 10.7085 5.02969 12.5 8.00021 12.5V11.5Z" fill="black"/>
<circle cx="8" cy="8" r="2" stroke="black"/>
</svg>
