<svg width="24" height="24" viewBox="0 0 24 24" fill="none" xmlns="http://www.w3.org/2000/svg">
<path fill-rule="evenodd" clip-rule="evenodd" d="M5 7C5 4.23858 7.23858 2 10 2C12.7614 2 15 4.23858 15 7V11H13V7C13 5.34315 11.6569 4 10 4C8.34315 4 7 5.34315 7 7V11H5V7Z" fill="#BFDDFA"/>
<rect x="2" y="10" width="16" height="12" rx="2" fill="#F2E085"/>
<path fill-rule="evenodd" clip-rule="evenodd" d="M19.3231 10.4122C20.911 9.33763 21.7194 7.35636 21.1925 5.4177C20.5242 2.95863 17.9606 1.49931 15.4664 2.15821C12.9723 2.81712 11.4922 5.34473 12.1605 7.8038C12.6873 9.74246 14.3922 11.0598 16.3124 11.2076L16.6501 12.4504C16.0959 12.5968 15.767 13.1585 15.9155 13.705C16.064 14.2515 16.6337 14.5758 17.1879 14.4293L17.4568 15.4188C16.9026 15.5652 16.5737 16.1269 16.7222 16.6734C16.8707 17.2198 17.4404 17.5441 17.9947 17.3977L18.2636 18.3871C17.7093 18.5336 17.3804 19.0953 17.5289 19.6417C17.6774 20.1882 18.2471 20.5125 18.8014 20.366L18.9358 20.8608C19.1586 21.6805 20.0131 22.1669 20.8445 21.9473C21.6759 21.7276 22.1693 20.8851 21.9465 20.0654L19.3231 10.4122ZM17.1605 8.39176C16.1629 8.65533 15.1374 8.0716 14.8701 7.08797C14.6028 6.10434 15.1948 5.0933 16.1925 4.82973C17.1901 4.56617 18.2156 5.1499 18.4829 6.13353C18.7502 7.11715 18.1582 8.1282 17.1605 8.39176Z" fill="#FFC331"/>
</svg>
