<svg width="24" height="24" viewBox="0 0 24 24" fill="none" xmlns="http://www.w3.org/2000/svg">
<circle cx="12" cy="19.5" r="2.5" fill="#F53500"/>
<path fill-rule="evenodd" clip-rule="evenodd" d="M9.69838 6.18663C9.2533 6.93476 9.18637 7.55439 9.34849 8.02576C9.61879 8.8117 9.18038 9.66115 8.36927 9.92306C7.55816 10.185 6.6815 9.76017 6.41119 8.97424C5.99324 7.75899 6.1969 6.06524 7.01603 4.68837C7.90172 3.19962 9.55267 2 12.008 2C14.2977 2 15.9144 2.84542 16.9262 4.05587C17.885 5.20276 18.2002 6.55458 18.2002 7.5C18.2002 8.92485 17.4362 11.5215 14.5837 12.5731C14.2311 12.7031 13.943 12.8908 13.7631 13.0813C13.5935 13.2609 13.556 13.3978 13.556 13.5V14.5C13.556 15.3284 12.8629 16 12.008 16C11.153 16 10.4599 15.3284 10.4599 14.5V13.5C10.4599 11.473 12.17 10.2531 13.4828 9.76916C14.7221 9.31228 15.1041 8.16957 15.1041 7.5C15.1041 7.11209 14.9549 6.4639 14.5204 5.94413C14.139 5.48791 13.4336 5 12.008 5C10.748 5 10.0769 5.55038 9.69838 6.18663Z" fill="#F53500"/>
</svg>
